Title: Confessions
Year: 2010
Country: Japan
Language: Japanese
Film Genre: Drama
Original Title: 告ç™½ / Kokuhaku
Subtitles: Japanese(idx,sub)
Director: Tetsuya Nakashima
Cast: Takako Matsu Masaki Okada Yoshino Kimura Yukito Nishii ..etc
IMDB Link: http://www.imdb.com/title/tt1590089/


Plot or synopsis
"This is my revenge." Based on the award-winning novel by Minato Kanae, Confessions (a.k.a. Kokuhaku) is an emotionally devastating drama about a teacher's terrifying plan to avenge her daughter's murder. Writer-director Nakashima Tatsuya presents a strong indictment against modern Japanese society, portraying a dark inner world of modern Japanese youths without any mercy, exploring the horrific lengths one will go in the name of vengeance, fame, and friendship. With films like Memories of Matsuko under his belt, Nakashima is no stranger to telling dark stories with strong visual aesthetics. Seamlessly combining a pulsating soundtrack, slick editing, and powerful images, Confessions takes Nakashima's filmmaking skills to exciting new heights.



General
Complete name : Confessions.2010.JAP.DVDRip.x264.AC3-BAUM.mkv
Format : Matroska
File size : 1.46 GiB
Duration : 1h 46mn
Overall bit rate : 1 955 Kbps
Encoded date : UTC 2011-01-16 05:32:27
Writing application : mkvmerge v4.0.0 ('The Stars were mine') built on Jun 6 2010 16:18:42
Writing library : libebml v1.0.0 + libmatroska v1.0.0


Video #0
ID : 1
Format : AVC
Format/Info : Advanced Video Codec
Format profile : High@L3.0
Format settings, CABAC : Yes
Format settings, ReFrames : 4 frames
Muxing mode : Container profile=Unknown@3.0
Codec ID : V_MPEG4/ISO/AVC
Duration : 1h 46mn
Bit rate : 1 505 Kbps
Width : 720 pixels
Height : 400 pixels
Display aspect ratio : 16:9
Frame rate : 23.976 fps
Color space : YUV
Chroma subsampling : 4:2:0
Bit depth : 8 bits
Scan type : Progressive
Bits/(Pixel*Frame) : 0.218
Stream size : 1.09 GiB (75%)
Writing library : x264 core 98 r1649 c54c47d


Audio #1
ID : 2
Format : AC-3
Format/Info : Audio Coding 3
Mode extension : CM (complete main)
Codec ID : A_AC3
Duration : 1h 46mn
Bit rate mode : Constant
Bit rate : 448 Kbps
Channel(s) : 6 channels
Channel positions : Front: L C R, Side: L R, LFE
Sampling rate : 48.0 KHz
Bit depth : 16 bits
Stream size : 342 MiB (23%)